<?xml version="1.0" encoding="UTF-8"?>
<svg id="Layer_2" data-name="Layer 2" xmlns="http://www.w3.org/2000/svg" viewBox="0 0 220.05 86.06">
  <defs>
    <style>
      .cls-1 {
        fill: #fff;
      }
    </style>
  </defs>
  <g id="Layer_1-2" data-name="Layer 1">
    <g>
      <path class="cls-1" d="M6.37,60.32v-27.56H0v-15.6H6.37V0H24.57V17.16h16.25v15.6H24.57v25.87c0,7.54,4.03,10.66,10.4,10.66,1.43,0,2.73-.13,4.03-.65v15.86c-1.69,.65-4.16,1.04-7.02,1.04-16.51,0-25.61-8.45-25.61-25.22Z"/>
      <path class="cls-1" d="M139.44,84.5h-18.2V40.82c0-5.72-4.16-9.88-9.75-9.88s-9.62,4.16-9.62,9.88v43.68h-18.2V40.82c0-5.72-4.16-9.88-9.75-9.88s-9.62,4.16-9.62,9.88v43.68h-18.2V41.08c0-15.34,12.22-26,27.69-26,8.32,0,14.95,3.12,19.24,8.58,4.55-5.46,11.31-8.58,19.5-8.58,15.6,0,26.91,10.66,26.91,26v43.42Z"/>
      <path class="cls-1" d="M160.44,84.5l-21.06-67.34h19.11l14.04,51.48h.52l13.91-51.48h18.98l-20.93,67.34h-24.57Z"/>
      <path class="cls-1" d="M199.12,75.66c0-5.72,4.81-10.4,10.53-10.4s10.4,4.68,10.4,10.4-4.81,10.4-10.4,10.4-10.53-4.68-10.53-10.4Z"/>
    </g>
  </g>
</svg>